<svg aria-hidden="true" style="position: absolute; width: 0; height: 0; overflow: hidden;" version="1.1" xmlns="http://www.w3.org/2000/svg" xmlns:xlink="http://www.w3.org/1999/xlink">
    <defs>
        <symbol id="icon-phone-call-1" viewBox="0 0 32 32">
            <path d="M31.129 23.485l-4.466-4.466c-1.595-1.595-4.306-0.957-4.944 1.116-0.478 1.435-2.073 2.233-3.509 1.914-3.19-0.797-7.496-4.944-8.293-8.293-0.478-1.435 0.478-3.030 1.914-3.509 2.073-0.638 2.711-3.349 1.116-4.944l-4.466-4.466c-1.276-1.116-3.19-1.116-4.306 0l-3.030 3.030c-3.030 3.19 0.319 11.643 7.815 19.139s15.949 11.005 19.139 7.815l3.030-3.030c1.117-1.276 1.117-3.19 0-4.306z"></path>
        </symbol>
        <symbol id="icon-rs_school_js" viewBox="0 0 86 32">
            <path fill="#000" style="fill: var(--color1, #000)" d="M44.485 10.599l4.099-0.265c0.094 0.67 0.265 1.169 0.546 1.528 0.452 0.561 1.075 0.842 1.902 0.842 0.608 0 1.091-0.14 1.418-0.436 0.312-0.234 0.499-0.608 0.499-0.998 0-0.374-0.171-0.733-0.468-0.966-0.312-0.281-1.044-0.561-2.198-0.811-1.886-0.421-3.242-0.982-4.037-1.699-0.795-0.67-1.247-1.652-1.216-2.697 0-0.717 0.218-1.434 0.623-2.026 0.468-0.67 1.107-1.2 1.87-1.496 0.826-0.359 1.98-0.546 3.429-0.546 1.777 0 3.133 0.327 4.068 0.998 0.935 0.655 1.496 1.715 1.668 3.164l-4.053 0.234c-0.109-0.623-0.327-1.075-0.686-1.372s-0.826-0.436-1.434-0.436c-0.499 0-0.873 0.109-1.122 0.312-0.234 0.187-0.39 0.468-0.374 0.779 0 0.234 0.125 0.452 0.312 0.592 0.203 0.187 0.686 0.359 1.45 0.514 1.886 0.405 3.227 0.811 4.053 1.231s1.418 0.935 1.777 1.543c0.374 0.623 0.561 1.34 0.546 2.073 0 0.873-0.249 1.746-0.748 2.478-0.514 0.764-1.231 1.356-2.073 1.715-0.888 0.39-2.011 0.592-3.351 0.592-2.369 0-4.006-0.452-4.925-1.372s-1.465-2.073-1.574-3.476zM0.982 15.213v-13.935h7.186c1.325 0 2.354 0.109 3.055 0.343 0.686 0.218 1.294 0.67 1.699 1.278 0.452 0.67 0.67 1.45 0.655 2.26 0.047 1.372-0.655 2.681-1.855 3.367-0.468 0.265-0.982 0.452-1.512 0.546 0.39 0.109 0.779 0.296 1.122 0.514 0.265 0.218 0.483 0.468 0.686 0.733 0.234 0.265 0.436 0.561 0.608 0.873l2.089 4.037h-4.894l-2.307-4.286c-0.296-0.546-0.546-0.904-0.779-1.075-0.312-0.218-0.686-0.327-1.060-0.327h-0.374v5.658h-4.318zM5.3 6.921h1.824c0.39-0.031 0.764-0.094 1.138-0.187 0.281-0.047 0.53-0.203 0.701-0.436 0.421-0.561 0.358-1.356-0.156-1.839-0.281-0.234-0.826-0.359-1.605-0.359h-1.902v2.821zM0 27.152l4.099-0.265c0.094 0.67 0.265 1.169 0.546 1.528 0.436 0.561 1.075 0.857 1.902 0.857 0.608 0 1.091-0.14 1.418-0.436 0.312-0.249 0.499-0.608 0.499-0.998 0-0.374-0.171-0.733-0.468-0.966-0.312-0.281-1.044-0.561-2.213-0.811-1.886-0.421-3.242-0.982-4.037-1.699-0.795-0.67-1.247-1.652-1.216-2.697 0-0.717 0.218-1.434 0.623-2.026 0.468-0.67 1.107-1.2 1.87-1.496 0.826-0.358 1.98-0.546 3.429-0.546 1.777 0 3.133 0.327 4.068 0.998s1.481 1.715 1.652 3.164l-4.053 0.234c-0.109-0.623-0.327-1.076-0.686-1.372-0.343-0.296-0.826-0.436-1.434-0.421-0.499 0-0.873 0.109-1.122 0.327-0.249 0.187-0.39 0.468-0.374 0.779 0 0.234 0.125 0.452 0.312 0.592 0.203 0.187 0.686 0.358 1.45 0.514 1.886 0.405 3.227 0.811 4.053 1.231s1.418 0.935 1.777 1.543c0.374 0.623 0.561 1.34 0.561 2.057 0 0.873-0.265 1.73-0.748 2.463-0.514 0.764-1.231 1.356-2.073 1.715-0.888 0.39-2.011 0.592-3.351 0.592-2.369 0-4.006-0.452-4.925-1.372-0.92-0.935-1.434-2.089-1.559-3.491z"></path>
            <path fill="#000" style="fill: var(--color1, #000)" d="M20.731 26.061l3.772 1.138c-0.203 0.951-0.623 1.855-1.2 2.65-0.53 0.701-1.231 1.247-2.026 1.605-0.811 0.358-1.839 0.546-3.086 0.546-1.512 0-2.759-0.218-3.71-0.655-0.966-0.436-1.793-1.216-2.494-2.322s-1.044-2.525-1.044-4.255c0-2.307 0.608-4.084 1.839-5.315s2.962-1.855 5.206-1.855c1.761 0 3.133 0.358 4.146 1.060 0.998 0.717 1.746 1.808 2.245 3.273l-3.803 0.842c-0.094-0.327-0.234-0.655-0.421-0.935-0.234-0.327-0.53-0.577-0.888-0.764s-0.764-0.265-1.169-0.265c-0.982 0-1.73 0.39-2.245 1.185-0.39 0.577-0.592 1.496-0.592 2.743 0 1.543 0.234 2.603 0.701 3.18s1.122 0.857 1.98 0.857c0.826 0 1.45-0.234 1.87-0.686 0.421-0.483 0.733-1.153 0.92-2.026zM29.537 17.831h4.302v4.879h4.707v-4.879h4.333v13.935h-4.333v-5.642h-4.707v5.642h-4.302v-13.935z"></path>
            <path fill="#000" style="fill: var(--color1, #000)" d="M42.287 24.799c0-2.276 0.639-4.053 1.902-5.315s3.039-1.902 5.3-1.902c2.322 0 4.099 0.623 5.362 1.87s1.886 2.993 1.886 5.237c0 1.637-0.281 2.962-0.826 4.006-0.53 1.029-1.356 1.87-2.369 2.432-1.044 0.577-2.338 0.873-3.881 0.873-1.574 0-2.868-0.249-3.897-0.748-1.060-0.53-1.933-1.356-2.51-2.369-0.639-1.091-0.966-2.447-0.966-4.084zM46.589 24.814c0 1.403 0.265 2.416 0.779 3.039 0.514 0.608 1.231 0.92 2.135 0.92 0.92 0 1.637-0.296 2.151-0.904s0.764-1.683 0.764-3.242c0-1.309-0.265-2.276-0.795-2.868-0.53-0.608-1.247-0.904-2.151-0.904-0.795-0.031-1.559 0.312-2.089 0.92s-0.795 1.621-0.795 3.039zM61.148 24.799c0-2.276 0.639-4.053 1.902-5.315s3.039-1.902 5.3-1.902c2.322 0 4.115 0.623 5.362 1.87s1.886 2.993 1.886 5.237c0 1.637-0.281 2.962-0.826 4.006-0.53 1.029-1.356 1.87-2.369 2.432-1.044 0.577-2.338 0.873-3.881 0.873-1.574 0-2.868-0.249-3.897-0.748-1.060-0.53-1.933-1.356-2.51-2.369-0.639-1.091-0.966-2.447-0.966-4.084zM65.45 24.814c0 1.403 0.265 2.416 0.779 3.039 0.514 0.608 1.231 0.92 2.135 0.92 0.92 0 1.637-0.296 2.151-0.904s0.764-1.683 0.764-3.242c0-1.309-0.265-2.276-0.795-2.868-0.53-0.608-1.247-0.904-2.151-0.904-0.795-0.031-1.574 0.312-2.089 0.92-0.53 0.608-0.795 1.621-0.795 3.039z"></path>
            <path fill="#000" style="fill: var(--color1, #000)" d="M75.145 17.831h4.302v10.506h6.718v3.429h-11.036v-13.935z"></path>
            <path fill="#fff" style="fill: var(--color2, #fff)" d="M46.656 8.813l22.382-16.866 15.487 20.552-22.382 16.866z"></path>
            <path fill="#fff" style="fill: var(--color2, #fff)" d="M73.386 4.669c2.684 3.561 1.348 9.094-2.983 12.358s-10.018 3.023-12.701-0.538c-2.684-3.561-1.348-9.094 2.983-12.358s10.018-3.023 12.701 0.538z"></path>
            <path fill="#fff" style="fill: var(--color2, #fff)" d="M52.888 10.185l15.672-11.81 9.728 12.909-15.672 11.81z"></path>
            <path fill="#fff" style="fill: var(--color2, #fff); stroke: var(--color1, #000)" stroke="#000" stroke-linejoin="miter" stroke-linecap="butt" stroke-miterlimit="10" stroke-width="0.6235" d="M73.386 4.669c2.684 3.561 1.348 9.094-2.983 12.358s-10.018 3.023-12.701-0.538c-2.684-3.561-1.348-9.094 2.983-12.358s10.018-3.023 12.701 0.538z"></path>
            <path fill="none" stroke="#000" style="stroke: var(--color1, #000)" stroke-linejoin="miter" stroke-linecap="butt" stroke-miterlimit="10" stroke-width="0.6235" d="M52.888 10.185l15.672-11.81 9.728 12.909-15.672 11.81z"></path>
            <path fill="none" stroke="#000" style="stroke: var(--color1, #000)" stroke-linejoin="miter" stroke-linecap="butt" stroke-miterlimit="10" stroke-width="0.6235" d="M46.656 8.813l22.382-16.866 15.487 20.552-22.382 16.866z"></path>
            <path fill="none" stroke="#000" style="stroke: var(--color1, #000)" stroke-linejoin="miter" stroke-linecap="butt" stroke-miterlimit="10" stroke-width="0.6235" d="M73.386 4.669c2.684 3.561 1.348 9.094-2.983 12.358s-10.018 3.023-12.701-0.538c-2.684-3.561-1.348-9.094 2.983-12.358s10.018-3.023 12.701 0.538z"></path>
            <path fill="#000" style="fill: var(--color1, #000)" d="M61.163 9.555l1.559-1.091 1.917 2.728c0.327 0.436 0.577 0.904 0.764 1.418 0.109 0.39 0.078 0.811-0.078 1.185-0.203 0.468-0.53 0.857-0.966 1.138-0.514 0.358-0.951 0.561-1.325 0.623-0.358 0.062-0.733 0-1.075-0.156-0.374-0.187-0.701-0.452-0.951-0.795l1.34-1.247c0.109 0.171 0.249 0.327 0.405 0.452 0.109 0.078 0.234 0.125 0.374 0.125 0.109 0 0.218-0.047 0.296-0.109 0.156-0.094 0.265-0.281 0.249-0.468-0.047-0.265-0.156-0.53-0.327-0.733l-2.182-3.071zM65.839 11.285l1.418-1.122c0.156 0.187 0.359 0.327 0.577 0.405 0.312 0.094 0.639 0.031 0.904-0.171 0.187-0.125 0.343-0.296 0.405-0.514 0.094-0.281-0.062-0.592-0.343-0.686-0.047-0.016-0.094-0.031-0.14-0.031-0.187-0.016-0.514 0.062-0.998 0.265-0.795 0.327-1.418 0.452-1.886 0.405-0.452-0.047-0.873-0.281-1.122-0.67-0.187-0.265-0.281-0.577-0.296-0.888 0-0.359 0.094-0.717 0.296-1.013 0.296-0.421 0.655-0.779 1.091-1.060 0.655-0.452 1.231-0.67 1.73-0.67s0.966 0.234 1.403 0.717l-1.403 1.107c-0.281-0.359-0.811-0.436-1.169-0.156l-0.047 0.047c-0.156 0.094-0.265 0.234-0.327 0.405-0.047 0.125-0.016 0.265 0.062 0.374 0.062 0.078 0.156 0.14 0.265 0.14 0.125 0.016 0.343-0.047 0.655-0.187 0.779-0.327 1.372-0.514 1.777-0.577 0.343-0.062 0.701-0.031 1.029 0.109 0.296 0.125 0.546 0.343 0.717 0.608 0.218 0.312 0.343 0.686 0.359 1.075 0.016 0.405-0.094 0.795-0.312 1.138-0.281 0.421-0.639 0.779-1.060 1.060-0.857 0.592-1.559 0.842-2.12 0.748-0.608-0.094-1.107-0.405-1.465-0.857z"></path>
        </symbol>
        <symbol id="icon-github" viewBox="0 0 32 32">
            <path d="M15.998 0.333c-8.834 0-15.998 7.192-15.998 16.064 0 7.096 4.584 13.116 10.944 15.242 0.8 0.148 1.092-0.348 1.092-0.774 0-0.382-0.014-1.392-0.022-2.732-4.45 0.97-5.39-2.154-5.39-2.154-0.726-1.856-1.776-2.35-1.776-2.35-1.454-0.996 0.108-0.976 0.108-0.976 1.606 0.114 2.45 1.656 2.45 1.656 1.428 2.454 3.746 1.746 4.658 1.334 0.144-1.038 0.558-1.746 1.016-2.148-3.552-0.406-7.288-1.784-7.288-7.938 0-1.754 0.624-3.188 1.648-4.312-0.166-0.406-0.714-2.040 0.156-4.25 0 0 1.344-0.432 4.4 1.646 1.276-0.356 2.644-0.534 4.006-0.54 1.358 0.008 2.728 0.184 4.006 0.542 3.054-2.078 4.396-1.646 4.396-1.646 0.872 2.212 0.324 3.844 0.16 4.25 1.026 1.124 1.644 2.558 1.644 4.312 0 6.17-3.74 7.528-7.304 7.926 0.574 0.496 1.086 1.476 1.086 2.974 0 2.148-0.020 3.88-0.020 4.406 0 0.43 0.288 0.93 1.1 0.772 6.35-2.128 10.93-8.146 10.93-15.24 0-8.872-7.164-16.064-16.002-16.064z"></path>
        </symbol>
        <symbol id="icon-linkedin" viewBox="0 0 32 32">
            <path d="M29.692 0h-27.384c-1.275 0-2.308 1.033-2.308 2.308v27.384c0 1.275 1.033 2.308 2.308 2.308h27.384c1.275 0 2.308-1.033 2.308-2.308v-27.384c0-1.275-1.033-2.308-2.308-2.308zM11.351 24.188h-3.897v-11.723h3.897zM9.402 10.863h-0.025c-1.308 0-2.153-0.9-2.153-2.025 0-1.15 0.872-2.026 2.205-2.026s2.153 0.875 2.179 2.026c0 1.125-0.846 2.025-2.205 2.025zM25.401 24.188h-3.896v-6.272c0-1.576-0.564-2.651-1.974-2.651-1.076 0-1.718 0.725-1.999 1.425-0.103 0.25-0.128 0.601-0.128 0.951v6.547h-3.896s0.051-10.624 0-11.723h3.896v1.66c0.518-0.799 1.444-1.935 3.512-1.935 2.564 0 4.486 1.676 4.486 5.276z"></path>
        </symbol>
        <symbol id="icon-envelope" viewBox="0 0 32 32">
            <path d="M0.668 5.947c4.392 3.719 12.098 10.263 14.363 12.303 0.304 0.275 0.63 0.415 0.969 0.415s0.663-0.139 0.967-0.413c2.267-2.042 9.973-8.587 14.365-12.306 0.273-0.231 0.315-0.637 0.094-0.92-0.512-0.653-1.275-1.027-2.093-1.027h-26.667c-0.818 0-1.581 0.374-2.092 1.027-0.221 0.282-0.18 0.689 0.094 0.92z"></path>
            <path d="M31.613 7.963c-0.236-0.11-0.514-0.072-0.711 0.096-4.87 4.129-11.087 9.421-13.042 11.184-1.098 0.991-2.621 0.991-3.721-0.001-2.085-1.878-9.065-7.813-13.041-11.182-0.198-0.168-0.477-0.205-0.711-0.096-0.236 0.109-0.387 0.345-0.387 0.605v16.766c0 1.471 1.196 2.667 2.667 2.667h26.667c1.471 0 2.667-1.196 2.667-2.667v-16.766c0-0.26-0.151-0.496-0.387-0.605z"></path>
        </symbol>
        <symbol id="icon-pin" viewBox="0 0 32 32">
            <path d="M16 0c-5.881 0-10.667 4.785-10.667 10.667 0 1.766 0.441 3.516 1.281 5.069l8.803 15.921c0.117 0.212 0.341 0.344 0.583 0.344s0.466-0.131 0.583-0.344l8.806-15.926c0.836-1.547 1.277-3.298 1.277-5.064 0-5.881-4.785-10.667-10.667-10.667zM16 16c-2.941 0-5.333-2.393-5.333-5.333s2.393-5.333 5.333-5.333 5.333 2.393 5.333 5.333c0 2.941-2.393 5.333-5.333 5.333z"></path>
        </symbol>
        <symbol id="icon-menu_mob" viewBox="0 0 32 32">
            <path d="M6.4 11.734v-2.134h19.2v2.134h-19.2zM6.4 17.066h19.2v-2.133h-19.2v2.133zM6.4 22.4h19.2v-2.134h-19.2v2.134z"></path>
        </symbol>
        <symbol id="icon-close_mob" viewBox="0 0 32 32">
            <path d="M23.734 10.304l-1.504-1.504-5.963 5.962-5.962-5.962-1.504 1.504 5.962 5.962-5.962 5.963 1.504 1.504 5.962-5.963 5.963 5.963 1.504-1.504-5.963-5.963 5.963-5.962z"></path>
        </symbol>
        <symbol id="icon-discord" viewBox="0 0 32 32">
            <path d="M4.773 28.261h19.012l-0.908-2.94 2.172 1.864 1.991 1.784 3.627 3.031v-28.7c-0.091-1.784-1.627-3.3-3.531-3.3l-22.356 0.004c-1.903 0-3.447 1.519-3.447 3.303v21.653c0 1.881 1.541 3.301 3.44 3.301zM18.837 7.577l-0.044 0.016 0.016-0.016zM8.663 9.269c2.444-1.779 4.709-1.693 4.709-1.693l0.183 0.18c-2.991 0.713-4.347 2.049-4.347 2.049s0.363-0.177 0.996-0.448c4.028-1.584 8.427-1.469 12.499 0.536 0 0-1.359-1.249-4.165-2.049l0.248-0.244c0.388 0.001 2.441 0.073 4.639 1.68 0 0 2.459 4.2 2.459 9.36-0.081-0.099-1.525 2.221-5.241 2.301 0 0-0.629-0.712-1.077-1.333 2.173-0.624 2.987-1.872 2.987-1.872-0.713 0.449-1.364 0.716-1.892 0.983-0.812 0.357-1.625 0.533-2.437 0.713-3.845 0.624-6.004-0.42-8.044-1.248l-0.697-0.355s0.812 1.248 2.899 1.872c-0.548 0.625-1.091 1.336-1.091 1.336-3.715-0.088-5.069-2.408-5.069-2.408 0-5.168 2.444-9.36 2.444-9.36z"></path>
            <path d="M19.077 17.028c0.948 0 1.72-0.8 1.72-1.787 0-0.98-0.768-1.78-1.72-1.78v0.004c-0.944 0-1.717 0.797-1.72 1.784 0 0.979 0.772 1.779 1.72 1.779z"></path>
            <path d="M12.92 17.028c0.948 0 1.72-0.8 1.72-1.787 0-0.98-0.767-1.78-1.715-1.78l-0.005 0.004c-0.948 0-1.72 0.797-1.72 1.784 0 0.979 0.772 1.779 1.72 1.779z"></path>
        </symbol>
        <symbol id="icon-telegram-1" viewBox="0 0 32 32">
            <path d="M12.556 20.241l-0.529 7.445c0.757 0 1.085-0.325 1.479-0.716l3.551-3.393 7.357 5.388c1.349 0.752 2.3 0.356 2.664-1.241l4.829-22.629 0.001-0.001c0.428-1.995-0.721-2.775-2.036-2.285l-28.387 10.868c-1.937 0.752-1.908 1.832-0.329 2.321l7.257 2.257 16.857-10.548c0.793-0.525 1.515-0.235 0.921 0.291z"></path>
        </symbol>
        <symbol id="icon-phone" viewBox="0 0 32 32">
            <path d="M22 20c-2 2-2 4-4 4s-4-2-6-4-4-4-4-6 2-2 4-4-4-8-6-8-6 6-6 6c0 4 4.109 12.109 8 16s12 8 16 8c0 0 6-4 6-6s-6-8-8-6z"></path>
        </symbol>
    </defs>
</svg>